HIERARCHY
ROOT Character1_Hips
{
	OFFSET 0.000000 86.858185 1.182688
	CHANNELS 6 Xposition Yposition Zposition Xrotation Yrotation Zrotation
	JOINT Character1_LeftUpLeg
	{
		OFFSET 7.276832 -6.057800 0.207883
		CHANNELS 6 Xposition Yposition Zposition Xrotation Yrotation Zrotation
		JOINT Character1_LeftLeg
		{
			OFFSET -1.823140 -35.110466 -1.568847
			CHANNELS 6 Xposition Yposition Zposition Xrotation Yrotation Zrotation
			JOINT Character1_LeftFoot
			{
				OFFSET -1.031196 -37.817070 -1.726818
				CHANNELS 6 Xposition Yposition Zposition Xrotation Yrotation Zrotation
				JOINT Character1_LeftToeBase
				{
					OFFSET 0.202457 -5.287532 8.122427
					CHANNELS 6 Xposition Yposition Zposition Xrotation Yrotation Zrotation
					End Site
					{
						OFFSET 0.009223 0.000047 9.693953
					}
				}
			}
		}
	}
	JOINT Character1_RightUpLeg
	{
		OFFSET -7.276832 -6.057770 0.207879
		CHANNELS 6 Xposition Yposition Zposition Xrotation Yrotation Zrotation
		JOINT Character1_RightLeg
		{
			OFFSET 1.823196 -35.109627 -1.587624
			CHANNELS 6 Xposition Yposition Zposition Xrotation Yrotation Zrotation
			JOINT Character1_RightFoot
			{
				OFFSET 1.031267 -37.817833 -1.710079
				CHANNELS 6 Xposition Yposition Zposition Xrotation Yrotation Zrotation
				JOINT Character1_RightToeBase
				{
					OFFSET -0.202449 -5.287759 8.122276
					CHANNELS 6 Xposition Yposition Zposition Xrotation Yrotation Zrotation
					End Site
					{
						OFFSET 0.001154 -0.000006 9.693956
					}
				}
			}
		}
	}
	JOINT Character1_Spine
	{
		OFFSET -0.000001 2.271347 0.818150
		CHANNELS 6 Xposition Yposition Zposition Xrotation Yrotation Zrotation
		JOINT Character1_Spine1
		{
			OFFSET -0.000001 9.085945 0.955446
			CHANNELS 6 Xposition Yposition Zposition Xrotation Yrotation Zrotation
			JOINT Character1_Spine2
			{
				OFFSET -0.000002 8.765564 -0.142866
				CHANNELS 6 Xposition Yposition Zposition Xrotation Yrotation Zrotation
				JOINT Character1_LeftShoulder
				{
					OFFSET 4.211487 11.612236 -3.873799
					CHANNELS 6 Xposition Yposition Zposition Xrotation Yrotation Zrotation
					JOINT Character1_LeftArm
					{
						OFFSET 5.543700 0.000031 -0.000005
						CHANNELS 6 Xposition Yposition Zposition Xrotation Yrotation Zrotation
						JOINT Character1_LeftForeArm
						{
							OFFSET 23.377409 -0.123474 0.033367
							CHANNELS 6 Xposition Yposition Zposition Xrotation Yrotation Zrotation
							JOINT Character1_LeftHand
							{
								OFFSET 16.247719 -0.118858 0.035829
								CHANNELS 6 Xposition Yposition Zposition Xrotation Yrotation Zrotation
								JOINT Character1_LeftHandThumb1
								{
									OFFSET 2.510399 -0.904045 2.091601
									CHANNELS 6 Xposition Yposition Zposition Xrotation Yrotation Zrotation
									JOINT Character1_LeftHandThumb2
									{
										OFFSET 2.570465 -1.130470 1.584520
										CHANNELS 6 Xposition Yposition Zposition Xrotation Yrotation Zrotation
										JOINT Character1_LeftHandThumb3
										{
											OFFSET 1.420841 -0.605858 0.842600
											CHANNELS 6 Xposition Yposition Zposition Xrotation Yrotation Zrotation
											JOINT Character1_LeftHandThumb4
											{
												OFFSET 2.153469 -0.757797 1.312965
												CHANNELS 6 Xposition Yposition Zposition Xrotation Yrotation Zrotation
												End Site
												{
													OFFSET 2.158772 -0.733734 1.317914
												}
											}
										}
									}
								}
								JOINT Character1_LeftHandIndex1
								{
									OFFSET 8.043888 0.989311 2.480770
									CHANNELS 6 Xposition Yposition Zposition Xrotation Yrotation Zrotation
									JOINT Character1_LeftHandIndex2
									{
										OFFSET 2.427021 0.011856 0.268371
										CHANNELS 6 Xposition Yposition Zposition Xrotation Yrotation Zrotation
										JOINT Character1_LeftHandIndex3
										{
											OFFSET 1.609932 0.007866 0.037315
											CHANNELS 6 Xposition Yposition Zposition Xrotation Yrotation Zrotation
											JOINT Character1_LeftHandIndex4
											{
												OFFSET 2.130016 0.049431 0.114431
												CHANNELS 6 Xposition Yposition Zposition Xrotation Yrotation Zrotation
												End Site
												{
													OFFSET 2.119099 0.211617 -0.131005
												}
											}
										}
									}
								}
								JOINT Character1_LeftHandMiddle1
								{
									OFFSET 8.038177 1.007423 0.439338
									CHANNELS 6 Xposition Yposition Zposition Xrotation Yrotation Zrotation
									JOINT Character1_LeftHandMiddle2
									{
										OFFSET 2.527046 -0.234444 -0.080977
										CHANNELS 6 Xposition Yposition Zposition Xrotation Yrotation Zrotation
										JOINT Character1_LeftHandMiddle3
										{
											OFFSET 1.931313 -0.179352 -0.117768
											CHANNELS 6 Xposition Yposition Zposition Xrotation Yrotation Zrotation
											JOINT Character1_LeftHandMiddle4
											{
												OFFSET 2.196999 0.041229 -0.161456
												CHANNELS 6 Xposition Yposition Zposition Xrotation Yrotation Zrotation
												End Site
												{
													OFFSET 2.197571 -0.071640 -0.141814
												}
											}
										}
									}
								}
								JOINT Character1_LeftHandRing1
								{
									OFFSET 7.662090 0.616508 -1.366725
									CHANNELS 6 Xposition Yposition Zposition Xrotation Yrotation Zrotation
									JOINT Character1_LeftHandRing2
									{
										OFFSET 2.249855 -0.592636 -0.461933
										CHANNELS 6 Xposition Yposition Zposition Xrotation Yrotation Zrotation
										JOINT Character1_LeftHandRing3
										{
											OFFSET 1.521790 -0.400856 -0.248318
											CHANNELS 6 Xposition Yposition Zposition Xrotation Yrotation Zrotation
											JOINT Character1_LeftHandRing4
											{
												OFFSET 2.446365 -0.396080 -0.528466
												CHANNELS 6 Xposition Yposition Zposition Xrotation Yrotation Zrotation
												End Site
												{
													OFFSET 2.437840 -0.527443 -0.446790
												}
											}
										}
									}
								}
								JOINT Character1_LeftHandPinky1
								{
									OFFSET 6.585136 -0.139000 -2.766160
									CHANNELS 6 Xposition Yposition Zposition Xrotation Yrotation Zrotation
									JOINT Character1_LeftHandPinky2
									{
										OFFSET 1.631428 -0.600632 -0.502815
										CHANNELS 6 Xposition Yposition Zposition Xrotation Yrotation Zrotation
										JOINT Character1_LeftHandPinky3
										{
											OFFSET 1.227242 -0.468956 -0.457904
											CHANNELS 6 Xposition Yposition Zposition Xrotation Yrotation Zrotation
											JOINT Character1_LeftHandPinky4
											{
												OFFSET 1.696033 -0.584229 -0.687828
												CHANNELS 6 Xposition Yposition Zposition Xrotation Yrotation Zrotation
												End Site
												{
													OFFSET 1.705387 -0.567787 -0.678411
												}
											}
										}
									}
								}
							}
						}
					}
				}
				JOINT Character1_RightShoulder
				{
					OFFSET -4.211487 11.612236 -3.873799
					CHANNELS 6 Xposition Yposition Zposition Xrotation Yrotation Zrotation
					JOINT Character1_RightArm
					{
						OFFSET -5.543744 0.000023 -0.000004
						CHANNELS 6 Xposition Yposition Zposition Xrotation Yrotation Zrotation
						JOINT Character1_RightForeArm
						{
							OFFSET -23.377581 -0.123566 0.033386
							CHANNELS 6 Xposition Yposition Zposition Xrotation Yrotation Zrotation
							JOINT Character1_RightHand
							{
								OFFSET -16.247574 -0.118851 0.036247
								CHANNELS 6 Xposition Yposition Zposition Xrotation Yrotation Zrotation
								JOINT Character1_RightHandThumb1
								{
									OFFSET -2.510384 -0.904091 2.091566
									CHANNELS 6 Xposition Yposition Zposition Xrotation Yrotation Zrotation
									JOINT Character1_RightHandThumb2
									{
										OFFSET -2.579426 -1.121681 1.537416
										CHANNELS 6 Xposition Yposition Zposition Xrotation Yrotation Zrotation
										JOINT Character1_RightHandThumb3
										{
											OFFSET -1.429546 -0.616760 0.819528
											CHANNELS 6 Xposition Yposition Zposition Xrotation Yrotation Zrotation
											JOINT Character1_RightHandThumb4
											{
												OFFSET -2.167622 -0.774658 1.279505
												CHANNELS 6 Xposition Yposition Zposition Xrotation Yrotation Zrotation
												End Site
												{
													OFFSET -2.137974 -0.606712 1.413074
												}
											}
										}
									}
								}
								JOINT Character1_RightHandIndex1
								{
									OFFSET -8.043800 0.988876 2.481294
									CHANNELS 6 Xposition Yposition Zposition Xrotation Yrotation Zrotation
									JOINT Character1_RightHandIndex2
									{
										OFFSET -2.426987 0.011948 0.268470
										CHANNELS 6 Xposition Yposition Zposition Xrotation Yrotation Zrotation
										JOINT Character1_RightHandIndex3
										{
											OFFSET -1.609989 0.007927 0.037374
											CHANNELS 6 Xposition Yposition Zposition Xrotation Yrotation Zrotation
											JOINT Character1_RightHandIndex4
											{
												OFFSET -2.129982 0.049034 0.114512
												CHANNELS 6 Xposition Yposition Zposition Xrotation Yrotation Zrotation
												End Site
												{
													OFFSET -2.123772 0.204735 0.006035
												}
											}
										}
									}
								}
								JOINT Character1_RightHandMiddle1
								{
									OFFSET -8.038174 1.006859 0.439860
									CHANNELS 6 Xposition Yposition Zposition Xrotation Yrotation Zrotation
									JOINT Character1_RightHandMiddle2
									{
										OFFSET -2.526997 -0.234062 -0.080875
										CHANNELS 6 Xposition Yposition Zposition Xrotation Yrotation Zrotation
										JOINT Character1_RightHandMiddle3
										{
											OFFSET -1.931465 -0.179070 -0.117694
											CHANNELS 6 Xposition Yposition Zposition Xrotation Yrotation Zrotation
											JOINT Character1_RightHandMiddle4
											{
												OFFSET -2.196987 0.042816 -0.161370
												CHANNELS 6 Xposition Yposition Zposition Xrotation Yrotation Zrotation
												End Site
												{
													OFFSET -2.184029 -0.187660 -0.222307
												}
											}
										}
									}
								}
								JOINT Character1_RightHandRing1
								{
									OFFSET -7.662136 0.615837 -1.366219
									CHANNELS 6 Xposition Yposition Zposition Xrotation Yrotation Zrotation
									JOINT Character1_RightHandRing2
									{
										OFFSET -2.249901 -0.592049 -0.461829
										CHANNELS 6 Xposition Yposition Zposition Xrotation Yrotation Zrotation
										JOINT Character1_RightHandRing3
										{
											OFFSET -1.521889 -0.400475 -0.248259
											CHANNELS 6 Xposition Yposition Zposition Xrotation Yrotation Zrotation
											JOINT Character1_RightHandRing4
											{
												OFFSET -2.446423 -0.395401 -0.528361
												CHANNELS 6 Xposition Yposition Zposition Xrotation Yrotation Zrotation
												End Site
												{
													OFFSET -2.430859 -0.503899 -0.507441
												}
											}
										}
									}
								}
								JOINT Character1_RightHandPinky1
								{
									OFFSET -6.585262 -0.139153 -2.765680
									CHANNELS 6 Xposition Yposition Zposition Xrotation Yrotation Zrotation
									JOINT Character1_RightHandPinky2
									{
										OFFSET -1.631413 -0.601036 -0.502742
										CHANNELS 6 Xposition Yposition Zposition Xrotation Yrotation Zrotation
										JOINT Character1_RightHandPinky3
										{
											OFFSET -1.227207 -0.469040 -0.457860
											CHANNELS 6 Xposition Yposition Zposition Xrotation Yrotation Zrotation
											JOINT Character1_RightHandPinky4
											{
												OFFSET -1.696110 -0.584045 -0.687750
												CHANNELS 6 Xposition Yposition Zposition Xrotation Yrotation Zrotation
												End Site
												{
													OFFSET -1.689350 -0.584435 -0.703875
												}
											}
										}
									}
								}
							}
						}
					}
				}
				JOINT Character1_Neck
				{
					OFFSET -0.000001 15.167763 -4.080687
					CHANNELS 6 Xposition Yposition Zposition Xrotation Yrotation Zrotation
					JOINT Character1_Head
					{
						OFFSET -0.000001 7.825302 -0.202157
						CHANNELS 6 Xposition Yposition Zposition Xrotation Yrotation Zrotation
						End Site
						{
							OFFSET -0.242856 15.320236 -2.107584
						}
					}
				}
				JOINT J_R_Mune_00
				{
					OFFSET -2.925001 2.684891 0.061887
					CHANNELS 6 Xposition Yposition Zposition Xrotation Yrotation Zrotation
					JOINT J_R_Mune_01
					{
						OFFSET -7.794388 2.801010 16.635391
						CHANNELS 6 Xposition Yposition Zposition Xrotation Yrotation Zrotation
						JOINT J_R_Mune_02
						{
							OFFSET 6.838630 -2.377007 -14.605499
							CHANNELS 6 Xposition Yposition Zposition Xrotation Yrotation Zrotation
							End Site
							{
								OFFSET -14.795670 -0.834061 -6.791919
							}
						}
					}
				}
				JOINT J_L_Mune_00
				{
					OFFSET 2.925019 2.684776 0.061883
					CHANNELS 6 Xposition Yposition Zposition Xrotation Yrotation Zrotation
					JOINT J_L_Mune_01
					{
						OFFSET 7.794374 2.801254 16.635433
						CHANNELS 6 Xposition Yposition Zposition Xrotation Yrotation Zrotation
						JOINT J_L_Mune_02
						{
							OFFSET -6.838619 -2.376648 -14.605538
							CHANNELS 3 Xrotation Yrotation Zrotation
							End Site
							{
								OFFSET 14.795649 -0.834076 -6.791907
							}
						}
					}
				}
			}
		}
	}
}
MOTION
Frames: 3
Frame Time: 0.033333
4.303302 86.362564 5.770282 -1.392361 7.683553 0.398948 7.276833 -6.057806 0.207883 6.078262 -12.637972 4.119404 -1.823137 -35.110455 -1.568848 4.735800 17.000056 0.094398 -1.031193 -37.817070 -1.726821 -7.925119 0.901245 -5.970329 0.202457 -5.287531 8.122426 0.000017 0.000193 -0.000838 -7.276832 -6.057778 0.207879 1.209006 0.223502 -10.127300 1.823197 -35.109615 -1.587623 3.360602 -0.555102 0.571283 1.031263 -37.817829 -1.710082 -2.960700 -0.749769 9.375837 -0.202448 -5.287760 8.122278 0.000080 -0.000228 -0.000518 -0.000001 2.271324 0.818149 -0.000001 -0.000156 0.000222 -0.000001 9.085935 0.955445 -3.694387 -1.432472 0.048498 -0.000003 8.765553 -0.142867 3.373637 0.071589 1.218541 4.211487 11.612237 -3.873796 0.000139 -0.000307 -2.457609 5.543694 0.000030 -0.000009 22.532548 -4.638717 -69.766216 23.377413 -0.123470 0.033365 -13.701433 -20.184000 -1.983183 16.247726 -0.118861 0.035829 3.689076 -5.480846 14.902926 2.510408 -0.904053 2.091599 -2.573529 -1.715405 7.432037 2.570457 -1.130488 1.584518 4.641398 14.920087 2.293054 1.420858 -0.605859 0.842595 5.373618 23.291317 2.709235 2.153474 -0.757797 1.312965 -0.000488 0.001042 -0.006157 8.043897 0.989311 2.480768 3.066902 13.710562 1.532283 2.427018 0.011862 0.268370 0.423079 -0.045474 -18.415518 1.609948 0.007847 0.037316 1.369347 0.271998 -24.433084 2.130016 0.049432 0.114429 -0.003222 -0.004221 -0.000929 8.038181 1.007443 0.439336 -0.329475 1.965096 -5.254509 2.527033 -0.234438 -0.080975 -1.320213 0.340391 -23.304747 1.931309 -0.179353 -0.117769 -2.195031 0.974599 -33.186216 2.197002 0.041219 -0.161456 -0.003106 -0.003926 0.001098 7.662091 0.616525 -1.366730 -11.465072 -5.992438 -0.178457 2.249858 -0.592628 -0.461929 -0.738324 1.112510 -28.734056 1.521788 -0.400851 -0.248313 -6.831676 4.426300 -25.212354 2.446365 -0.396069 -0.528472 -0.003501 -0.001502 0.000849 6.585145 -0.138976 -2.766163 -6.188481 -18.307905 5.996306 1.631420 -0.600642 -0.502817 -3.494322 1.741883 -11.170017 1.227232 -0.468956 -0.457903 -10.862905 8.683080 -35.889400 1.696028 -0.584226 -0.687827 -0.000669 -0.000221 -0.000250 -4.211487 11.612230 -3.873796 0.000142 0.000233 -0.000089 -5.543738 0.000033 -0.000004 18.379291 -6.253939 69.702422 -23.377579 -0.123558 0.033386 -21.253670 15.838625 2.479735 -16.247568 -0.118848 0.036248 18.813807 -3.705876 -1.482719 -2.510378 -0.904105 2.091560 -7.055538 -0.039616 -13.731427 -2.579426 -1.121674 1.537415 6.117596 -19.520467 -2.673297 -1.429540 -0.616759 0.819532 7.326763 -30.564799 -3.014738 -2.167620 -0.774657 1.279522 0.009622 0.003699 -0.006364 -8.043796 0.988881 2.481293 2.009644 -9.925569 11.498776 -2.426987 0.011941 0.268470 0.065875 -0.000263 28.214022 -1.610004 0.007925 0.037374 0.000501 -0.000334 5.297883 -2.129972 0.049045 0.114510 -0.001019 -0.008829 0.004708 -8.038171 1.006865 0.439861 1.626913 0.054673 4.583788 -2.526998 -0.234068 -0.080874 -1.121531 -0.261077 37.373426 -1.931448 -0.179058 -0.117694 -1.772000 -1.184797 47.582612 -2.196980 0.042821 -0.161370 -0.000927 -0.002821 -0.003692 -7.662132 0.615837 -1.366219 -0.911313 14.831923 6.673616 -2.249886 -0.592048 -0.461831 -0.411924 -0.168562 26.029993 -1.521865 -0.400475 -0.248253 -4.277596 -1.878553 44.397220 -2.446420 -0.395397 -0.528370 0.004822 0.000967 0.007304 -6.585266 -0.139149 -2.765685 -20.673548 14.545298 1.425848 -1.631412 -0.601038 -0.502744 -4.387734 -2.335267 14.215256 -1.227201 -0.469038 -0.457859 -10.411730 -11.507457 39.806735 -1.696094 -0.584064 -0.687745 0.004215 0.003786 -0.005304 -0.000001 15.167760 -4.080683 2.506078 -3.196685 -2.737783 -0.000000 7.825315 -0.202159 2.510361 -3.097519 -2.829126 -2.925001 2.684891 0.061889 -0.000003 0.000002 -0.000000 -7.794384 2.801018 16.635382 0.000001 0.000003 -0.000000 6.838629 -2.377006 -14.605497 -0.000001 0.000000 0.000000 2.925018 2.684792 0.061883 0.000001 -0.000002 -0.000000 7.794373 2.801255 16.635427 -0.000002 -0.000004 0.000001 0.000001 0.000002 -0.000000 
4.303303 86.362274 5.770281 -1.392378 7.683521 0.398934 7.276834 -6.057809 0.207883 6.072457 -12.638530 4.118973 -1.823139 -35.110466 -1.568847 4.747349 16.999718 0.092709 -1.031194 -37.817078 -1.726820 -7.930453 0.901805 -5.971118 0.202458 -5.287530 8.122426 0.000017 0.000201 -0.000807 -7.276831 -6.057788 0.207878 1.204451 0.223938 -10.127346 1.823195 -35.109627 -1.587623 3.369444 -0.554344 0.571288 1.031264 -37.817833 -1.710082 -2.964946 -0.750129 9.375851 -0.202448 -5.287758 8.122277 -0.000000 -0.000226 -0.000490 -0.000001 2.271330 0.818148 -0.002145 -0.000166 0.000246 -0.000001 9.085940 0.955445 -3.692862 -1.432498 0.048500 -0.000003 8.765563 -0.142869 3.376852 0.071703 1.218566 4.211487 11.612245 -3.873793 0.000140 -0.000320 -2.457612 5.543694 0.000042 -0.000004 22.528694 -4.642436 -69.766339 23.377405 -0.123466 0.033369 -13.703334 -20.182497 -1.982846 16.247717 -0.118849 0.035828 3.696646 -5.510882 14.903606 2.510404 -0.904037 2.091603 -2.573551 -1.715461 7.432151 2.570471 -1.130471 1.584515 4.641402 14.920104 2.292985 1.420836 -0.605857 0.842595 5.373658 23.291317 2.709305 2.153465 -0.757801 1.312959 -0.000515 0.001072 -0.006161 8.043894 0.989305 2.480768 3.066855 13.710527 1.532339 2.427014 0.011860 0.268371 0.423037 -0.045487 -18.415486 1.609930 0.007872 0.037314 1.369406 0.272035 -24.433190 2.130030 0.049426 0.114429 -0.003250 -0.004229 -0.001059 8.038173 1.007438 0.439337 -0.329484 1.965084 -5.254497 2.527056 -0.234448 -0.080976 -1.320223 0.340370 -23.304785 1.931332 -0.179341 -0.117770 -2.195036 0.974655 -33.186233 2.196994 0.041227 -0.161455 -0.003101 -0.003979 0.001109 7.662092 0.616516 -1.366724 -11.465051 -5.992447 -0.178433 2.249865 -0.592634 -0.461930 -0.738355 1.112453 -28.734018 1.521794 -0.400861 -0.248313 -6.831726 4.426412 -25.212455 2.446362 -0.396081 -0.528465 -0.003404 -0.001566 0.000934 6.585138 -0.138987 -2.766161 -6.188477 -18.307945 5.996383 1.631438 -0.600641 -0.502826 -3.494320 1.741919 -11.170024 1.227243 -0.468947 -0.457904 -10.862888 8.683037 -35.889277 1.696040 -0.584232 -0.687833 -0.000648 -0.000214 -0.000273 -4.211487 11.612239 -3.873794 0.000180 0.000212 -0.000095 -5.543736 0.000026 -0.000005 18.379049 -6.253958 69.702046 -23.377575 -0.123569 0.033383 -21.258079 15.930028 2.483165 -16.247574 -0.118851 0.036240 18.813278 -3.705885 -1.482558 -2.510396 -0.904101 2.091560 -7.055608 -0.039542 -13.731518 -2.579413 -1.121668 1.537409 6.117666 -19.520522 -2.673249 -1.429547 -0.616758 0.819530 7.326703 -30.564813 -3.014702 -2.167623 -0.774647 1.279519 0.009685 0.003684 -0.006437 -8.043814 0.988884 2.481296 2.009584 -9.925550 11.498642 -2.426992 0.011950 0.268467 0.065829 -0.000305 28.214021 -1.609986 0.007926 0.037371 0.000546 -0.000300 5.297925 -2.129976 0.049035 0.114509 -0.001004 -0.008853 0.004697 -8.038188 1.006861 0.439863 1.626882 0.054680 4.583752 -2.526998 -0.234057 -0.080876 -1.121601 -0.261096 37.373306 -1.931457 -0.179064 -0.117691 -1.771925 -1.184758 47.582602 -2.196986 0.042809 -0.161377 -0.000929 -0.002834 -0.003745 -7.662139 0.615843 -1.366221 -0.911352 14.831956 6.673596 -2.249900 -0.592033 -0.461829 -0.411914 -0.168579 26.029950 -1.521900 -0.400482 -0.248255 -4.277592 -1.878526 44.397196 -2.446426 -0.395391 -0.528363 0.004805 0.000966 0.007298 -6.585263 -0.139145 -2.765689 -20.673531 14.545330 1.425785 -1.631420 -0.601037 -0.502743 -4.387738 -2.335216 14.215178 -1.227197 -0.469046 -0.457857 -10.411728 -11.507509 39.806807 -1.696094 -0.584048 -0.687744 0.004178 0.003754 -0.005303 -0.000001 15.167780 -4.080681 2.504547 -3.196560 -2.737976 -0.000000 7.825318 -0.202156 2.490820 -3.096554 -2.830164 -2.925001 2.684891 0.061892 -0.000001 0.000002 -0.000000 -7.794386 2.801018 16.635389 0.000001 -0.000003 0.000000 6.838631 -2.377022 -14.605500 0.000001 0.000003 0.000000 2.925019 2.684799 0.061886 0.000001 0.000000 -0.000000 7.794375 2.801255 16.635427 -0.000001 -0.000003 0.000001 0.000001 0.000000 -0.000000 
4.303294 86.361267 5.770261 -1.392368 7.683563 0.398948 7.276834 -6.057793 0.207884 6.057096 -12.640007 4.118041 -1.823139 -35.110455 -1.568847 4.777948 16.998770 0.087826 -1.031193 -37.817066 -1.726821 -7.944569 0.903221 -5.972960 0.202457 -5.287531 8.122425 0.000019 0.000197 -0.000807 -7.276833 -6.057787 0.207878 1.192830 0.224869 -10.127530 1.823198 -35.109612 -1.587623 3.391912 -0.551944 0.571442 1.031264 -37.817833 -1.710081 -2.975816 -0.751309 9.375901 -0.202448 -5.287759 8.122276 0.000000 -0.000196 -0.000491 -0.000001 2.271337 0.818150 -0.008453 -0.000018 0.000210 -0.000001 9.085941 0.955445 -3.688441 -1.432595 0.048609 -0.000003 8.765560 -0.142869 3.386262 0.071899 1.218544 4.211488 11.612246 -3.873798 0.000134 -0.000277 -2.457594 5.543697 0.000054 -0.000006 22.516986 -4.653589 -69.766284 23.377401 -0.123467 0.033367 -13.709343 -20.177736 -1.982376 16.247702 -0.118857 0.035830 3.704835 -5.543375 14.904542 2.510399 -0.904054 2.091603 -2.573492 -1.715367 7.432043 2.570475 -1.130477 1.584523 4.641434 14.920050 2.293016 1.420846 -0.605857 0.842595 5.373637 23.291304 2.709282 2.153475 -0.757807 1.312961 -0.000517 0.001089 -0.006161 8.043888 0.989313 2.480770 3.066957 13.710579 1.532251 2.427024 0.011869 0.268370 0.423040 -0.045516 -18.415409 1.609950 0.007858 0.037313 1.369381 0.272061 -24.433125 2.130025 0.049433 0.114431 -0.003222 -0.004228 -0.001029 8.038179 1.007447 0.439337 -0.329420 1.965132 -5.254526 2.527033 -0.234442 -0.080976 -1.320245 0.340371 -23.304985 1.931305 -0.179341 -0.117769 -2.195006 0.974650 -33.186267 2.197011 0.041223 -0.161457 -0.003099 -0.003948 0.001101 7.662088 0.616511 -1.366729 -11.464998 -5.992384 -0.178490 2.249866 -0.592639 -0.461931 -0.738309 1.112433 -28.734025 1.521789 -0.400850 -0.248322 -6.831697 4.426363 -25.212402 2.446364 -0.396100 -0.528464 -0.003467 -0.001546 0.000922 6.585144 -0.138990 -2.766159 -6.188390 -18.307868 5.996322 1.631421 -0.600635 -0.502827 -3.494359 1.741890 -11.169999 1.227237 -0.468953 -0.457912 -10.862869 8.683071 -35.889328 1.696024 -0.584231 -0.687828 -0.000651 -0.000247 -0.000254 -4.211487 11.612238 -3.873798 0.000203 0.000244 -0.000077 -5.543736 0.000016 -0.000004 18.378291 -6.253903 69.700994 -23.377569 -0.123557 0.033384 -21.263554 16.032790 2.491439 -16.247574 -0.118852 0.036244 18.812631 -3.705906 -1.482609 -2.510368 -0.904097 2.091561 -7.055562 -0.039590 -13.731381 -2.579422 -1.121676 1.537413 6.117594 -19.520491 -2.673339 -1.429549 -0.616754 0.819535 7.326734 -30.564813 -3.014687 -2.167633 -0.774644 1.279518 0.009699 0.003652 -0.006412 -8.043796 0.988880 2.481293 2.009620 -9.925576 11.498723 -2.427004 0.011950 0.268468 0.065830 -0.000312 28.214004 -1.610011 0.007928 0.037373 0.000557 -0.000272 5.297902 -2.129972 0.049037 0.114509 -0.000998 -0.008864 0.004695 -8.038166 1.006855 0.439860 1.626894 0.054696 4.583760 -2.526994 -0.234061 -0.080874 -1.121595 -0.261118 37.373388 -1.931480 -0.179053 -0.117692 -1.771920 -1.184751 47.582646 -2.196984 0.042825 -0.161373 -0.000927 -0.002846 -0.003709 -7.662132 0.615835 -1.366220 -0.911365 14.831927 6.673605 -2.249894 -0.592031 -0.461826 -0.411884 -0.168554 26.029979 -1.521880 -0.400476 -0.248251 -4.277616 -1.878547 44.397285 -2.446427 -0.395406 -0.528367 0.004872 0.000984 0.007257 -6.585255 -0.139149 -2.765679 -20.673547 14.545298 1.425837 -1.631406 -0.601036 -0.502735 -4.387720 -2.335225 14.215154 -1.227206 -0.469052 -0.457851 -10.411757 -11.507486 39.806800 -1.696105 -0.584044 -0.687751 0.004196 0.003780 -0.005280 -0.000001 15.167757 -4.080686 2.500416 -3.196109 -2.738357 -0.000001 7.825297 -0.202158 2.469696 -3.095461 -2.831345 -2.925001 2.684898 0.061887 0.000000 -0.000002 0.000000 -7.794387 2.801010 16.635387 0.000001 -0.000001 -0.000001 6.838631 -2.377022 -14.605494 0.000000 0.000000 -0.000001 2.925020 2.684799 0.061881 0.000002 0.000000 -0.000000 7.794374 2.801254 16.635424 -0.000000 -0.000000 0.000001 -0.000000 0.000000 -0.000001 
